<?xml version="1.0" encoding="UTF-8"?>
<!DOCTYPE svg PUBLIC "-//W3C//DTD SVG 1.1//EN" "http://www.w3.org/Graphics/SVG/1.1/DTD/svg11.dtd">
<svg xmlns="http://www.w3.org/2000/svg" version="1.1" width="1024px" height="1024px" style="shape-rendering:geometricPrecision; text-rendering:geometricPrecision; image-rendering:optimizeQuality; fill-rule:evenodd; clip-rule:evenodd" xmlns:xlink="http://www.w3.org/1999/xlink">
<g><path style="opacity:1" fill="#fefefe" d="M -0.5,-0.5 C 340.833,-0.5 682.167,-0.5 1023.5,-0.5C 1023.5,340.833 1023.5,682.167 1023.5,1023.5C 682.167,1023.5 340.833,1023.5 -0.5,1023.5C -0.5,682.167 -0.5,340.833 -0.5,-0.5 Z"/></g>
<g><path style="opacity:1" fill="#f2903d" d="M 668.5,317.5 C 668.5,421.833 668.5,526.167 668.5,630.5C 627.498,630.361 586.498,630.028 545.5,629.5C 545.5,546.167 545.5,462.833 545.5,379.5C 420.5,379.5 295.5,379.5 170.5,379.5C 170.5,337.833 170.5,296.167 170.5,254.5C 306.5,254.333 442.5,254.5 578.5,255C 608.679,275.696 638.679,296.53 668.5,317.5 Z"/></g>
<g><path style="opacity:1" fill="#bfd4df" d="M 762.5,273.5 C 763.209,272.596 764.209,272.263 765.5,272.5C 765.167,366.001 765.501,459.335 766.5,552.5C 766.158,553.338 765.492,553.672 764.5,553.5C 765.164,459.827 764.498,366.494 762.5,273.5 Z"/></g>
<g><path style="opacity:1" fill="#256e94" d="M 760.5,274.5 C 761.5,274.5 762.5,274.5 763.5,274.5C 763.167,367.668 763.501,460.668 764.5,553.5C 765.492,553.672 766.158,553.338 766.5,552.5C 796.08,537.21 825.747,522.21 855.5,507.5C 857.492,537.482 858.159,567.815 857.5,598.5C 815.728,625.227 774.061,652.227 732.5,679.5C 711.148,663.143 689.815,646.809 668.5,630.5C 668.5,526.167 668.5,421.833 668.5,317.5C 699.136,303.183 729.803,288.85 760.5,274.5 Z"/></g>
<g><path style="opacity:1" fill="#3d7fa0" d="M 760.5,274.5 C 760.842,273.662 761.508,273.328 762.5,273.5C 764.498,366.494 765.164,459.827 764.5,553.5C 763.501,460.668 763.167,367.668 763.5,274.5C 762.5,274.5 761.5,274.5 760.5,274.5 Z"/></g>
<g><path style="opacity:1" fill="#508ba9" d="M 857.5,598.5 C 858.159,567.815 857.492,537.482 855.5,507.5C 855.811,506.522 856.478,505.855 857.5,505.5C 858.83,536.664 858.83,567.664 857.5,598.5 Z"/></g>
<g><path style="opacity:1" fill="#2b7196" d="M 838.5,710.5 C 838.168,723.184 838.501,735.851 839.5,748.5C 840.107,748.376 840.44,748.043 840.5,747.5C 844.611,743.444 849.611,740.944 855.5,740C 877.155,737.982 890.488,747.482 895.5,768.5C 895.698,776.534 895.365,784.534 894.5,792.5C 890.702,805.299 882.369,813.299 869.5,816.5C 863.464,816.64 857.464,816.307 851.5,815.5C 846.973,814.319 843.139,811.986 840,808.5C 839.955,811.334 839.121,813.834 837.5,816C 833.5,816.667 829.5,816.667 825.5,816C 825,815.5 824.5,815 824,814.5C 823.5,779.835 823.333,745.168 823.5,710.5C 828.5,710.5 833.5,710.5 838.5,710.5 Z"/></g>
<g><path style="opacity:1" fill="#538dab" d="M 838.5,710.5 C 839.167,722.833 839.833,735.167 840.5,747.5C 840.44,748.043 840.107,748.376 839.5,748.5C 838.501,735.851 838.168,723.184 838.5,710.5 Z"/></g>
<g><path style="opacity:1" fill="#f29140" d="M 547.5,816.5 C 543.253,817.602 538.92,817.768 534.5,817C 532.926,815.174 532.093,813.007 532,810.5C 527.564,815.253 522.064,817.753 515.5,818C 495.163,820.237 482.33,811.404 477,791.5C 472.632,773.939 477.132,759.105 490.5,747C 505.082,739.135 519.082,739.969 532.5,749.5C 533.495,737.345 533.829,725.011 533.5,712.5C 538.167,712.5 542.833,712.5 547.5,712.5C 547.5,747.167 547.5,781.833 547.5,816.5 Z"/></g>
<g><path style="opacity:1" fill="#f7bd8c" d="M 547.5,816.5 C 547.5,781.833 547.5,747.167 547.5,712.5C 542.833,712.5 538.167,712.5 533.5,712.5C 533.829,725.011 533.495,737.345 532.5,749.5C 532.5,736.833 532.5,724.167 532.5,711.5C 537.833,711.5 543.167,711.5 548.5,711.5C 548.832,746.671 548.498,781.671 547.5,816.5 Z"/></g>
<g><path style="opacity:1" fill="#79a6bd" d="M 688.5,713.5 C 683.5,713.5 678.5,713.5 673.5,713.5C 673.5,742.833 673.5,772.167 673.5,801.5C 672.502,772.005 672.169,742.338 672.5,712.5C 678.026,712.179 683.36,712.512 688.5,713.5 Z"/></g>
<g><path style="opacity:1" fill="#266f94" d="M 688.5,713.5 C 688.333,742.169 688.5,770.835 689,799.5C 689.5,800 690,800.5 690.5,801C 706.5,801.333 722.5,801.667 738.5,802C 741.106,806.267 741.106,810.601 738.5,815C 721.167,815.667 703.833,815.667 686.5,815C 680.595,811.93 676.262,807.43 673.5,801.5C 673.5,772.167 673.5,742.833 673.5,713.5C 678.5,713.5 683.5,713.5 688.5,713.5 Z"/></g>
<g><path style="opacity:1" fill="#f29140" d="M 222.5,777.5 C 211.5,777.5 200.5,777.5 189.5,777.5C 189.5,790.167 189.5,802.833 189.5,815.5C 189.389,816.117 189.056,816.617 188.5,817C 184.167,817.667 179.833,817.667 175.5,817C 175,816.5 174.5,816 174,815.5C 173.5,781.835 173.333,748.168 173.5,714.5C 191.209,714.086 208.875,714.586 226.5,716C 245.075,721.646 252.575,734.146 249,753.5C 245.717,767.855 236.883,775.855 222.5,777.5 Z"/></g>
<g><path style="opacity:1" fill="#fefcfa" d="M 189.5,728.5 C 200.172,728.333 210.839,728.5 221.5,729C 232.901,733.31 236.734,741.476 233,753.5C 231.167,758 228,761.167 223.5,763C 212.244,764.433 200.91,764.933 189.5,764.5C 189.5,752.5 189.5,740.5 189.5,728.5 Z"/></g>
<g><path style="opacity:1" fill="#f29240" d="M 277.5,739.5 C 288.123,738.823 298.123,740.989 307.5,746C 308.887,750.736 307.554,754.569 303.5,757.5C 295.925,753.582 287.925,752.082 279.5,753C 270.129,757.275 269.129,762.942 276.5,770C 284.754,773.529 293.087,776.862 301.5,780C 313.2,787.255 315.7,797.088 309,809.5C 297.267,819.807 283.767,822.974 268.5,819C 264.489,817.665 260.489,816.331 256.5,815C 252.571,810.241 253.237,806.074 258.5,802.5C 265.555,804.722 272.722,806.389 280,807.5C 286.907,807.872 292.573,805.538 297,800.5C 298.183,796.726 297.349,793.559 294.5,791C 283.804,787.08 273.471,782.414 263.5,777C 253.878,765.961 254.211,755.294 264.5,745C 268.741,742.651 273.075,740.818 277.5,739.5 Z"/></g>
<g><path style="opacity:1" fill="#f2913f" d="M 388.5,765.5 C 389.541,771.79 390.208,778.123 390.5,784.5C 390.047,785.458 389.381,786.292 388.5,787C 371.17,787.5 353.837,787.667 336.5,787.5C 337.336,796.175 342.003,801.675 350.5,804C 354.097,804.972 357.764,805.472 361.5,805.5C 368.298,804.638 374.965,803.472 381.5,802C 387.347,807.852 386.68,812.519 379.5,816C 368.245,818.899 356.911,819.232 345.5,817C 332.801,812.968 324.967,804.468 322,791.5C 318.521,778.232 320.521,765.899 328,754.5C 341.264,740.465 356.764,737.632 374.5,746C 381.735,750.631 386.402,757.131 388.5,765.5 Z"/></g>
<g><path style="opacity:1" fill="#f29140" d="M 634.5,787.5 C 632.928,790.215 631.928,793.215 631.5,796.5C 624.667,811.931 612.667,819.265 595.5,818.5C 571.377,816.367 559.377,803.033 559.5,778.5C 560.242,759.16 569.908,746.993 588.5,742C 609.594,739.125 624.427,747.291 633,766.5C 634.288,773.437 634.788,780.437 634.5,787.5 Z"/></g>
<g><path style="opacity:1" fill="#287095" d="M 808.5,754.5 C 809.453,774.806 809.786,795.14 809.5,815.5C 805.253,816.602 800.92,816.768 796.5,816C 796.002,814.842 795.169,814.009 794,813.5C 789.1,815 784.266,816.333 779.5,817.5C 773.464,817.64 767.464,817.307 761.5,816.5C 747.578,810.319 742.411,799.652 746,784.5C 753.522,769.524 765.689,763.69 782.5,767C 786.754,768.314 791.087,769.147 795.5,769.5C 796.325,763.657 794.325,759.157 789.5,756C 778.558,754.76 767.558,754.093 756.5,754C 754.066,750.284 753.899,746.451 756,742.5C 767.757,741.346 779.591,741.179 791.5,742C 799.797,742.795 805.464,746.962 808.5,754.5 Z"/></g>
<g><path style="opacity:1" fill="#f2913f" d="M 401.5,743.5 C 406.5,743.5 411.5,743.5 416.5,743.5C 416.333,761.503 416.5,779.503 417,797.5C 419.649,803.496 424.316,806.163 431,805.5C 437.485,805.634 443.152,803.634 448,799.5C 448.5,780.836 448.667,762.17 448.5,743.5C 453.5,743.5 458.5,743.5 463.5,743.5C 463.833,767.842 463.5,792.176 462.5,816.5C 458.558,817.6 454.558,817.767 450.5,817C 449.91,815.491 449.244,813.991 448.5,812.5C 441.905,816.831 434.571,818.831 426.5,818.5C 412.35,818.519 404.184,811.519 402,797.5C 401.5,779.503 401.333,761.503 401.5,743.5 Z"/></g>
<g><path style="opacity:1" fill="#fbfcfd" d="M 855.5,752.5 C 867.502,752.008 875.669,757.341 880,768.5C 881.644,778.008 880.311,787.008 876,795.5C 869.902,803.11 862.068,805.61 852.5,803C 840.712,794.887 836.545,783.72 840,769.5C 842.256,761.081 847.423,755.415 855.5,752.5 Z"/></g>
<g><path style="opacity:1" fill="#fefcfb" d="M 350.5,754.5 C 361.105,753.299 368.938,757.299 374,766.5C 374.497,768.81 374.663,771.143 374.5,773.5C 361.833,773.5 349.167,773.5 336.5,773.5C 336.164,767.654 338.164,762.82 342.5,759C 345.099,757.205 347.766,755.705 350.5,754.5 Z"/></g>
<g><path style="opacity:1" fill="#fefdfc" d="M 506.5,754.5 C 519.312,753.148 527.812,758.481 532,770.5C 534.329,781.77 532.163,791.937 525.5,801C 509.383,809.852 498.216,805.685 492,788.5C 488.445,773.303 493.278,761.969 506.5,754.5 Z"/></g>
<g><path style="opacity:1" fill="#fefcfa" d="M 591.5,754.5 C 605.431,753.374 614.597,759.374 619,772.5C 621.401,784.182 618.234,794.016 609.5,802C 592.664,809.753 581.164,804.92 575,787.5C 572.088,772.001 577.588,761.001 591.5,754.5 Z"/></g>
<g><path style="opacity:1" fill="#76a4bb" d="M 808.5,754.5 C 809.268,755.263 809.768,756.263 810,757.5C 810.829,777.004 810.662,796.338 809.5,815.5C 809.786,795.14 809.453,774.806 808.5,754.5 Z"/></g>
<g><path style="opacity:1" fill="#8db2c6" d="M 895.5,768.5 C 896.655,775.321 896.821,782.321 896,789.5C 895.768,790.737 895.268,791.737 894.5,792.5C 895.365,784.534 895.698,776.534 895.5,768.5 Z"/></g>
<g><path style="opacity:1" fill="#fbddc4" d="M 222.5,777.5 C 212.013,778.494 201.346,778.828 190.5,778.5C 190.829,791.011 190.495,803.345 189.5,815.5C 189.5,802.833 189.5,790.167 189.5,777.5C 200.5,777.5 211.5,777.5 222.5,777.5 Z"/></g>
<g><path style="opacity:1" fill="#fbd4b5" d="M 388.5,765.5 C 391.427,771.629 392.093,777.962 390.5,784.5C 390.208,778.123 389.541,771.79 388.5,765.5 Z"/></g>
<g><path style="opacity:1" fill="#f7fafb" d="M 770.5,779.5 C 774.846,779.334 779.179,779.501 783.5,780C 787.378,781.47 791.378,782.303 795.5,782.5C 795.5,788.5 795.5,794.5 795.5,800.5C 790.943,801.973 786.276,803.139 781.5,804C 767.276,807.991 760.442,802.825 761,788.5C 762.871,784.006 766.038,781.006 770.5,779.5 Z"/></g>
<g><path style="opacity:1" fill="#facda7" d="M 634.5,787.5 C 634.472,790.916 633.472,793.916 631.5,796.5C 631.928,793.215 632.928,790.215 634.5,787.5 Z"/></g>
<g><path style="opacity:1" fill="#a3c2d2" d="M 851.5,815.5 C 857.464,816.307 863.464,816.64 869.5,816.5C 867.19,817.164 864.69,817.497 862,817.5C 858.195,817.696 854.695,817.03 851.5,815.5 Z"/></g>
<g><path style="opacity:1" fill="#b7cfdc" d="M 761.5,816.5 C 767.464,817.307 773.464,817.64 779.5,817.5C 777.19,818.164 774.69,818.497 772,818.5C 768.195,818.696 764.695,818.03 761.5,816.5 Z"/></g>
</svg>
